
  <svg xmlns="http://www.w3.org/2000/svg" viewBox="0 0 1440 320">
    <path
      fill="#ffffff55"
      fill-opacity="1"
      d="M0,224L34.3,224C68.6,224,137,224,206,202.7C274.3,181,343,139,411,138.7C480,139,549,181,617,218.7C685.7,256,754,288,823,266.7C891.4,245,960,171,1029,160C1097.1,149,1166,203,1234,197.3C1302.9,192,1371,128,1406,96L1440,64L1440,320L1405.7,320C1371.4,320,1303,320,1234,320C1165.7,320,1097,320,1029,320C960,320,891,320,823,320C754.3,320,686,320,617,320C548.6,320,480,320,411,320C342.9,320,274,320,206,320C137.1,320,69,320,34,320L0,320Z"
    ></path>
  </svg>
